<svg version="1.0" xmlns="http://www.w3.org/2000/svg" width="800" height="800" viewBox="0 0 600 600"><path d="M0 162.5V325h275v-50h50V0H0v162.5zm119.5-68.2c21 3.6 36.9 13.6 45.2 28.7 2.4 4.3 5.9 13.4 6.8 18 .4 1.9.9 10.2 1.1 18.5.3 13.1 0 16-2 23-7.5 26.6-24 42.1-52.5 49.2-1.4.3-19.3.8-39.7 1l-37.2.5V92.9l37.1.4c20.5.2 39 .7 41.2 1zm160.6 3.4c.1 4.7 0 18.4-.1 25v3.3h-45v9.9c0 7 .4 10 1.3 10.3.6.2 10.2.3 21.2.3l20-.1-.1 16.1c-.1 8.8-.2 16.2-.3 16.5 0 .3-9.5.5-21.1.4l-21-.1V200l24.2.2 24.2.3v32l-45.2.3-45.2.2V93h87l.1 4.7z"/><path d="M83.8 126.1c0 .2-.2 17-.3 37.2l-.1 36.8 9.2-.2c14.2-.2 22-3.7 28.4-12.5 11.4-15.9 9.2-42.8-4.4-53.9-6.4-5.2-11-6.7-22.3-7.3-5.7-.2-10.4-.3-10.5-.1zm237 204.1c-.3 1.1-.2 213.4.1 216 .1.5 14.9.8 32.9.8h32.8l-.1-37.1c0-20.4.2-37.4.5-37.8.3-.4 14.9-.7 32.5-.7h32v-25.3c0-20.2-.2-25.4-1.3-25.9-.7-.2-15.4-.5-32.5-.6l-31.1-.1-.1-19.3c0-12.3.3-19.2 1-19.3.5-.1 16.5-.2 35.5-.3l34.5-.1.2-25.8.1-25.7h-68.3c-53.7 0-68.4.3-68.7 1.2zm169.1.5c0 1-.2 50.1-.2 109l-.2 107.3H555V329h-32.5c-30.3 0-32.5.1-32.6 1.7z"/></svg>