<?xml version="1.0" standalone="no"?>
<!DOCTYPE svg PUBLIC "-//W3C//DTD SVG 20010904//EN"
 "http://www.w3.org/TR/2001/REC-SVG-20010904/DTD/svg10.dtd">
<svg version="1.0" xmlns="http://www.w3.org/2000/svg"
 width="600.000000pt" height="600.000000pt" viewBox="0 0 600.000000 600.000000"
 preserveAspectRatio="xMidYMid meet">
<metadata>
Created by potrace 1.11, written by Peter Selinger 2001-2013
</metadata>
<g transform="translate(0.000000,600.000000) scale(0.100000,-0.100000)"
fill="#000000" stroke="none">
<path d="M0 4375 l0 -1625 1375 0 1375 0 0 250 0 250 250 0 250 0 0 1375 0
1375 -1625 0 -1625 0 0 -1625z m1195 682 c210 -36 369 -136 452 -287 24 -43
59 -134 68 -180 4 -19 9 -102 11 -185 3 -131 0 -160 -20 -230 -75 -266 -240
-421 -525 -492 -14 -3 -193 -8 -397 -10 l-372 -5 0 702 0 701 371 -4 c205 -2
390 -7 412 -10z m1606 -34 c1 -47 0 -184 -1 -250 l0 -33 -225 0 -225 0 0 -99
c0 -70 4 -100 13 -103 6 -2 102 -3 212 -3 l200 1 -1 -161 c-1 -88 -2 -162 -3
-165 0 -3 -95 -5 -211 -4 l-210 1 0 -103 0 -104 242 -2 242 -3 0 -160 0 -160
-452 -3 -452 -2 0 700 0 700 435 0 435 0 1 -47z"/>
<path d="M838 4739 c0 -2 -2 -170 -3 -372 l-1 -368 92 2 c142 2 220 37 284
125 114 159 92 428 -44 539 -64 52 -110 67 -223 73 -57 2 -104 3 -105 1z"/>
<path d="M3208 2698 c-3 -11 -2 -2134 1 -2160 1 -5 149 -8 329 -8 l328 0 -1
371 c0 204 2 374 5 378 3 4 149 7 325 7 l320 0 0 253 c0 202 -2 254 -13 259
-7 2 -154 5 -325 6 l-311 1 -1 193 c0 123 3 192 10 193 5 1 165 2 355 3 l345
1 2 258 1 257 -683 0 c-537 0 -684 -3 -687 -12z"/>
<path d="M4899 2693 c0 -10 -2 -501 -2 -1090 l-2 -1073 328 0 327 0 0 1090 0
1090 -325 0 c-303 0 -325 -1 -326 -17z"/>
</g>
</svg>
